<svg width="15" height="14" viewBox="0 0 15 14" fill="none" xmlns="http://www.w3.org/2000/svg">
<path fill-rule="evenodd" clip-rule="evenodd" d="M6.19417 0.964821C9.22797 0.964821 11.6942 3.2756 11.6942 6.11482C11.6942 7.1317 11.3778 8.08079 10.8323 8.88021L14.5058 12.0945L13.6826 13.0352L10.0094 9.82112C9.01993 10.7145 7.67463 11.2648 6.19417 11.2648C3.16037 11.2648 0.694168 8.95404 0.694168 6.11482C0.694168 3.2756 3.16037 0.964821 6.19417 0.964821ZM6.19417 2.21482C8.61606 2.21482 10.4442 4.04187 10.4442 6.11482C10.4442 8.18777 8.61606 10.0148 6.19417 10.0148C3.77228 10.0148 1.94417 8.18777 1.94417 6.11482C1.94417 4.04187 3.77228 2.21482 6.19417 2.21482Z" fill="#2C3357"/>
</svg>
