<svg width="311" height="69" viewBox="0 0 311 69" fill="none" xmlns="http://www.w3.org/2000/svg">
<path d="M14.314 19.514C15.2647 19.7207 16.732 20.63 18.716 22.242C20.7413 23.854 22.9113 25.8173 25.226 28.132C28.3673 24.536 31.4673 21.1467 34.526 17.964C37.626 14.7813 40.4987 11.9913 43.144 9.594C45.7893 7.15533 48.1247 5.254 50.15 3.89C52.2167 2.48466 53.7667 1.782 54.8 1.782C56.288 1.82333 57.838 2.03 59.45 2.402C61.062 2.774 62.5293 3.18733 63.852 3.642C65.1747 4.09666 66.2287 4.53066 67.014 4.944C67.8407 5.316 68.1713 5.54333 68.006 5.626C67.9647 5.70866 67.634 6.37 67.014 7.61C66.394 8.80866 65.588 10.462 64.596 12.57C63.604 14.678 62.488 17.1167 61.248 19.886C60.008 22.6553 58.7267 25.6107 57.404 28.752C56.1227 31.8933 54.8413 35.138 53.56 38.486C52.2787 41.834 51.1213 45.12 50.088 48.344C49.096 51.5267 48.2487 54.5853 47.546 57.52C46.8847 60.4133 46.492 63.0173 46.368 65.332L34.588 60.372C34.5053 59.628 34.5467 58.6567 34.712 57.458C34.8773 56.218 35.1253 54.8127 35.456 53.242C35.4147 53.2007 35.394 53.056 35.394 52.808C35.4353 50.576 34.774 48.344 33.41 46.112C32.0873 43.88 30.3513 41.7307 28.202 39.664C26.0527 42.5573 23.9653 45.43 21.94 48.282C19.9147 51.134 18.0547 53.8207 16.36 56.342C14.7067 58.8633 13.26 61.1573 12.02 63.224C10.78 65.332 9.87067 67.0473 9.292 68.37L0.116 62.914C1.108 60.93 2.32733 58.7807 3.774 56.466C5.22067 54.11 6.83267 51.6713 8.61 49.15C10.3873 46.6287 12.2887 44.0453 14.314 41.4C16.3807 38.7133 18.5093 36.068 20.7 33.464C18.7573 32.0587 16.8353 30.7773 14.934 29.62C13.074 28.4213 11.3793 27.388 9.85 26.52C8.32067 25.652 7.06 24.9493 6.068 24.412C5.11733 23.8747 4.58 23.544 4.456 23.42C4.12533 23.2133 4.10467 22.9653 4.394 22.676C4.68333 22.3453 5.138 22.0353 5.758 21.746C6.41933 21.4567 7.184 21.1673 8.052 20.878C8.92 20.5887 9.76733 20.3407 10.594 20.134C11.4207 19.886 12.1647 19.7207 12.826 19.638C13.5287 19.514 14.0247 19.4727 14.314 19.514ZM52.63 11.578C52.0927 11.578 51.142 12.2187 49.778 13.5C48.414 14.74 46.7813 16.4347 44.88 18.584C43.02 20.7333 40.9327 23.234 38.618 26.086C36.3447 28.8967 34.03 31.8727 31.674 35.014C33.038 36.5847 34.278 38.0933 35.394 39.54C36.51 40.9867 37.4193 42.3093 38.122 43.508C38.99 40.7387 39.982 37.8867 41.098 34.952C42.2553 31.976 43.454 29.0827 44.694 26.272C45.9753 23.42 47.2773 20.7333 48.6 18.212C49.964 15.6907 51.3073 13.4793 52.63 11.578ZM82.0994 6.06C83.5874 6.14266 84.91 6.45267 86.0674 6.99C87.266 7.52733 88.258 8.168 89.0434 8.912C89.8287 9.61466 90.3867 10.338 90.7174 11.082C91.0894 11.826 91.2134 12.4253 91.0894 12.88C90.5934 14.9053 89.7667 17.0753 88.6094 19.39C87.452 21.7047 86.1087 24.0607 84.5794 26.458C83.0914 28.8553 81.4794 31.232 79.7434 33.588C78.0074 35.9027 76.3127 38.0933 74.6594 40.16C73.0474 42.2267 71.5387 44.128 70.1334 45.864C68.728 47.5587 67.612 48.9433 66.7854 50.018C66.9094 51.2993 67.24 52.374 67.7774 53.242C68.356 54.0687 69.1827 54.6473 70.2574 54.978C72.448 52.1673 74.4114 49.6253 76.1474 47.352C76.8914 46.4013 77.6147 45.4713 78.3174 44.562C79.0614 43.6113 79.7227 42.7847 80.3014 42.082C80.9214 41.338 81.438 40.7593 81.8514 40.346C82.2647 39.8913 82.5127 39.664 82.5954 39.664C82.7194 39.664 83.0707 39.726 83.6494 39.85C84.2694 39.9327 84.8894 40.0567 85.5094 40.222C86.1294 40.346 86.6667 40.5113 87.1214 40.718C87.6174 40.9247 87.8447 41.1107 87.8034 41.276C87.762 41.4 87.39 41.958 86.6874 42.95C85.9847 43.942 85.096 45.1407 84.0214 46.546C82.988 47.91 81.8514 49.3773 80.6114 50.948C79.3714 52.5187 78.152 53.986 76.9534 55.35C75.7547 56.714 74.6594 57.8507 73.6674 58.76C72.7167 59.6693 72.014 60.124 71.5594 60.124C69.658 60.2067 67.8394 59.9587 66.1034 59.38C64.4087 58.76 62.9 57.9127 61.5774 56.838C60.2547 55.722 59.1594 54.42 58.2914 52.932C57.4647 51.444 56.9894 49.8527 56.8654 48.158C56.7827 46.8353 56.948 45.2233 57.3614 43.322C57.7747 41.3793 58.374 39.292 59.1594 37.06C59.9447 34.828 60.8747 32.5133 61.9494 30.116C63.0654 27.6773 64.264 25.3007 65.5454 22.986C66.8267 20.6713 68.17 18.4807 69.5754 16.414C71.022 14.3473 72.4687 12.5493 73.9154 11.02C75.362 9.44933 76.7674 8.23 78.1314 7.362C79.5367 6.45266 80.8594 6.01866 82.0994 6.06ZM85.4474 12.942C84.5794 13.314 83.608 14.0167 82.5334 15.05C81.5 16.0833 80.4047 17.344 79.2474 18.832C78.1314 20.32 77.0154 21.9733 75.8994 23.792C74.7834 25.6107 73.7087 27.512 72.6754 29.496C71.6834 31.48 70.774 33.5053 69.9474 35.572C69.1207 37.5973 68.4387 39.5607 67.9014 41.462C68.728 40.718 69.72 39.602 70.8774 38.114C72.0347 36.5847 73.2334 34.89 74.4734 33.03C75.7134 31.17 76.9534 29.2273 78.1934 27.202C79.4747 25.1353 80.6114 23.172 81.6034 21.312C82.6367 19.452 83.5047 17.778 84.2074 16.29C84.91 14.802 85.3234 13.686 85.4474 12.942ZM86.4365 23.42H88.1105C89.8051 20.072 91.8305 16.6207 94.1865 13.066C94.1865 13.066 94.4758 13.128 95.0545 13.252C95.6331 13.376 96.3358 13.5413 97.1625 13.748C98.0305 13.9547 98.9605 14.182 99.9525 14.43C100.944 14.678 101.854 14.926 102.68 15.174C103.507 15.422 104.168 15.6493 104.664 15.856C105.202 16.0627 105.408 16.2073 105.284 16.29C104.747 16.7447 104.106 17.6127 103.362 18.894C102.618 20.1753 101.792 21.7253 100.882 23.544H105.408L103.672 26.396H99.5185C98.6505 28.256 97.7618 30.24 96.8525 32.348C95.9431 34.456 95.0545 36.5433 94.1865 38.61C93.3185 40.6353 92.5125 42.578 91.7685 44.438C91.0658 46.2567 90.4458 47.8687 89.9085 49.274C89.3711 50.6793 88.9578 51.7953 88.6685 52.622C88.3791 53.4073 88.2758 53.7587 88.3585 53.676C88.5651 53.5107 88.9785 53.056 89.5985 52.312C90.2598 51.5267 90.9831 50.6173 91.7685 49.584C92.5951 48.5093 93.4631 47.3933 94.3725 46.236C95.2818 45.0373 96.1085 43.942 96.8525 42.95C97.5965 41.958 98.2165 41.152 98.7125 40.532C99.2498 39.8707 99.5598 39.54 99.6425 39.54C99.7251 39.54 100.035 39.602 100.572 39.726C101.11 39.8087 101.688 39.9327 102.308 40.098C102.928 40.222 103.507 40.3873 104.044 40.594C104.582 40.7593 104.912 40.9247 105.036 41.09C105.078 41.214 104.768 41.772 104.106 42.764C103.445 43.7147 102.577 44.8927 101.502 46.298C100.469 47.7033 99.3118 49.212 98.0305 50.824C96.7491 52.3947 95.5091 53.8827 94.3105 55.288C93.1118 56.652 92.0371 57.7887 91.0865 58.698C90.1771 59.6073 89.5571 60.0827 89.2265 60.124C88.8545 60.1653 88.1931 60.0827 87.2425 59.876C86.2918 59.628 85.2791 59.256 84.2045 58.76C83.1711 58.264 82.1998 57.644 81.2905 56.9C80.3811 56.156 79.7611 55.3087 79.4305 54.358C79.1411 53.4487 79.0791 52.0847 79.2445 50.266C79.3685 48.4473 79.7405 46.3187 80.3605 43.88C80.9391 41.4 81.7451 38.672 82.7785 35.696C83.8531 32.6787 85.1758 29.5373 86.7465 26.272H84.7625L86.4365 23.42ZM126.631 25.156C128.822 25.652 130.764 26.1273 132.459 26.582C133.162 26.7887 133.844 26.9953 134.505 27.202C135.208 27.3673 135.807 27.5327 136.303 27.698C136.84 27.822 137.254 27.9667 137.543 28.132C137.832 28.256 137.936 28.3387 137.853 28.38C137.15 29 136.344 30.0747 135.435 31.604C134.526 33.092 133.596 34.7867 132.645 36.688C131.694 38.5893 130.764 40.5733 129.855 42.64C128.987 44.6653 128.202 46.5047 127.499 48.158C126.838 49.8113 126.321 51.1753 125.949 52.25C125.577 53.2833 125.453 53.7587 125.577 53.676C125.784 53.5107 126.197 53.056 126.817 52.312C127.478 51.5267 128.202 50.6173 128.987 49.584C129.814 48.5093 130.682 47.3933 131.591 46.236C132.5 45.0373 133.327 43.942 134.071 42.95C134.815 41.958 135.435 41.152 135.931 40.532C136.468 39.8707 136.778 39.54 136.861 39.54C136.944 39.54 137.254 39.602 137.791 39.726C138.328 39.8087 138.907 39.9327 139.527 40.098C140.147 40.222 140.705 40.3873 141.201 40.594C141.738 40.7593 142.069 40.9247 142.193 41.09C142.276 41.214 141.986 41.772 141.325 42.764C140.664 43.7147 139.796 44.8927 138.721 46.298C137.688 47.7033 136.53 49.212 135.249 50.824C133.968 52.3947 132.728 53.8827 131.529 55.288C130.372 56.652 129.338 57.7887 128.429 58.698C127.52 59.6073 126.9 60.0827 126.569 60.124C126.156 60.1653 125.432 60.0827 124.399 59.876C123.407 59.628 122.332 59.2767 121.175 58.822C120.018 58.326 118.943 57.706 117.951 56.962C116.959 56.218 116.298 55.3707 115.967 54.42C115.802 53.9653 115.74 53.3247 115.781 52.498C115.864 51.63 116.008 50.6587 116.215 49.584C115.14 50.7413 113.983 51.94 112.743 53.18C111.503 54.3787 110.284 55.474 109.085 56.466C107.928 57.458 106.853 58.2847 105.861 58.946C104.869 59.6073 104.084 59.9587 103.505 60C103.133 60.0413 102.575 59.9793 101.831 59.814C101.128 59.6073 100.384 59.2353 99.5989 58.698C98.8135 58.1193 98.0902 57.334 97.4289 56.342C96.7675 55.35 96.2922 54.048 96.0029 52.436C95.8375 51.6507 95.8789 50.452 96.1269 48.84C96.3335 47.228 96.7262 45.4507 97.3049 43.508C97.8835 41.5653 98.6275 39.5607 99.5369 37.494C100.446 35.4273 101.48 33.5467 102.637 31.852C103.836 30.116 105.138 28.7107 106.543 27.636C107.99 26.52 109.54 25.9413 111.193 25.9C112.02 25.9 112.908 25.962 113.859 26.086C114.81 26.21 115.74 26.3753 116.649 26.582C117.558 26.7887 118.406 27.0367 119.191 27.326C120.018 27.574 120.7 27.8633 121.237 28.194C121.568 28.4007 121.816 28.814 121.981 29.434C122.188 30.054 122.332 30.7567 122.415 31.542C123.242 29.7647 124.027 28.2973 124.771 27.14C125.556 25.9413 126.176 25.28 126.631 25.156ZM120.927 44.19C120.638 44.6033 120.059 45.306 119.191 46.298C118.364 47.29 117.372 48.3853 116.215 49.584C116.504 48.096 116.918 46.4427 117.455 44.624C117.992 42.8053 118.612 40.966 119.315 39.106C119.439 38.238 119.563 37.3493 119.687 36.44C119.852 35.4893 119.935 34.6213 119.935 33.836C119.976 33.0093 119.914 32.3067 119.749 31.728C119.625 31.1493 119.356 30.7773 118.943 30.612C118.364 30.4053 117.724 30.5913 117.021 31.17C116.318 31.7487 115.595 32.596 114.851 33.712C114.107 34.7867 113.363 36.0473 112.619 37.494C111.875 38.9407 111.172 40.4493 110.511 42.02C109.85 43.5493 109.25 45.0787 108.713 46.608C108.176 48.096 107.721 49.4393 107.349 50.638C107.018 51.7953 106.791 52.7253 106.667 53.428C106.584 54.1307 106.646 54.4613 106.853 54.42C107.184 54.3787 107.68 54.048 108.341 53.428C109.044 52.7667 109.829 52.002 110.697 51.134C111.565 50.2247 112.454 49.2533 113.363 48.22C114.272 47.1453 115.099 46.174 115.843 45.306C116.628 44.3967 117.248 43.6527 117.703 43.074C118.199 42.4953 118.447 42.1853 118.447 42.144C118.447 42.1027 118.612 42.144 118.943 42.268C119.315 42.3507 119.687 42.4953 120.059 42.702C120.431 42.8673 120.72 43.0947 120.927 43.384C121.175 43.632 121.175 43.9007 120.927 44.19ZM176.515 16.476C174.449 19.3693 172.713 22.0353 171.307 24.474C169.902 26.9127 168.724 29.2067 167.773 31.356C166.823 33.5053 166.058 35.5513 165.479 37.494C164.901 39.4367 164.405 41.3793 163.991 43.322C163.619 45.2647 163.289 47.2487 162.999 49.274C162.71 51.258 162.379 53.3867 162.007 55.66C160.065 55.1227 158.329 54.6267 156.799 54.172C156.138 53.9653 155.497 53.7587 154.877 53.552C154.257 53.3453 153.699 53.1593 153.203 52.994C152.749 52.7873 152.377 52.622 152.087 52.498C151.798 52.3327 151.653 52.188 151.653 52.064C151.447 48.5507 151.529 45.3473 151.901 42.454C152.273 39.5607 152.955 36.7293 153.947 33.96C154.939 31.1493 156.262 28.256 157.915 25.28C159.61 22.304 161.635 18.9973 163.991 15.36C162.462 16.1453 161.015 16.9307 159.651 17.716C158.287 18.46 157.047 19.1627 155.931 19.824C154.857 20.4853 153.927 21.0847 153.141 21.622C152.356 22.118 151.757 22.49 151.343 22.738C149.359 21.9113 147.623 21.1467 146.135 20.444C145.515 20.1547 144.895 19.8653 144.275 19.576C143.697 19.2453 143.18 18.956 142.725 18.708C142.312 18.46 142.002 18.2327 141.795 18.026C141.589 17.8193 141.547 17.654 141.671 17.53C142.539 16.91 143.821 16.0833 145.515 15.05C147.251 14.0167 149.256 12.9007 151.529 11.702C153.844 10.462 156.365 9.222 159.093 7.982C161.863 6.70066 164.694 5.54333 167.587 4.51C170.522 3.43533 173.436 2.56733 176.329 1.906C179.264 1.20333 182.075 0.83133 184.761 0.789997C185.175 0.789997 185.815 0.975997 186.683 1.348C187.551 1.72 188.502 2.23666 189.535 2.898C190.61 3.518 191.685 4.24133 192.759 5.068C193.875 5.89466 194.888 6.76266 195.797 7.672C196.748 8.58133 197.513 9.51133 198.091 10.462C198.67 11.3713 198.98 12.2187 199.021 13.004C199.104 15.0707 198.877 17.1167 198.339 19.142C197.802 21.1673 197.079 23.1307 196.169 25.032C195.26 26.892 194.206 28.6487 193.007 30.302C191.809 31.914 190.548 33.3607 189.225 34.642C187.944 35.9233 186.663 36.998 185.381 37.866C184.1 38.6927 182.922 39.2507 181.847 39.54C182.054 40.408 182.405 41.524 182.901 42.888C183.439 44.252 183.811 45.74 184.017 47.352C184.224 48.964 184.079 50.6587 183.583 52.436C183.129 54.2133 182.013 55.9287 180.235 57.582C178.458 59.2353 175.833 60.7647 172.361 62.17C168.931 63.5753 164.322 64.7533 158.535 65.704C156.675 66.0347 154.877 66.0347 153.141 65.704C151.447 65.3733 149.855 64.8567 148.367 64.154C146.879 63.4513 145.474 62.5833 144.151 61.55C142.87 60.5167 141.692 59.442 140.617 58.326C138.096 55.722 135.885 52.6633 133.983 49.15C136.091 48.2407 137.993 47.4553 139.687 46.794C140.39 46.5047 141.093 46.236 141.795 45.988C142.498 45.74 143.118 45.5333 143.655 45.368C144.234 45.2027 144.689 45.0993 145.019 45.058C145.391 45.0167 145.598 45.058 145.639 45.182C145.681 45.3473 145.887 45.8227 146.259 46.608C146.673 47.3933 147.21 48.3233 147.871 49.398C148.574 50.4727 149.38 51.6093 150.289 52.808C151.24 53.9653 152.273 55.0193 153.389 55.97C154.547 56.8793 155.745 57.6027 156.985 58.14C158.267 58.636 159.569 58.7807 160.891 58.574C163.95 58.078 166.327 57.21 168.021 55.97C169.716 54.6887 170.935 53.242 171.679 51.63C172.423 50.018 172.795 48.344 172.795 46.608C172.795 44.872 172.651 43.2807 172.361 41.834C172.072 40.3873 171.741 39.1887 171.369 38.238C171.039 37.2873 170.894 36.812 170.935 36.812C172.547 36.44 174.139 35.82 175.709 34.952C177.28 34.084 178.747 32.9887 180.111 31.666C181.475 30.3433 182.653 28.8553 183.645 27.202C184.679 25.5073 185.464 23.6887 186.001 21.746C186.539 19.762 186.787 17.6747 186.745 15.484C186.704 13.2933 186.27 11.0407 185.443 8.726C182.591 8.726 179.595 9.222 176.453 10.214C173.312 11.1647 170.253 12.322 167.277 13.686C168.104 13.8927 169.075 14.1407 170.191 14.43C171.307 14.678 172.341 14.9467 173.291 15.236C174.283 15.5253 175.089 15.794 175.709 16.042C176.371 16.2487 176.639 16.3933 176.515 16.476ZM202.195 25.156C204.427 25.652 206.37 26.1273 208.023 26.582C208.726 26.7887 209.408 26.9953 210.069 27.202C210.772 27.3673 211.371 27.5327 211.867 27.698C212.363 27.822 212.756 27.9667 213.045 28.132C213.335 28.256 213.438 28.3387 213.355 28.38C212.653 29 211.847 30.0747 210.937 31.604C210.069 33.092 209.16 34.7867 208.209 36.688C207.3 38.5893 206.391 40.5733 205.481 42.64C204.572 44.6653 203.787 46.5047 203.125 48.158C202.464 49.8113 201.927 51.1753 201.513 52.25C201.141 53.2833 201.017 53.7587 201.141 53.676C201.389 53.5107 201.823 53.056 202.443 52.312C203.063 51.5267 203.787 50.6173 204.613 49.584C205.44 48.5093 206.287 47.3933 207.155 46.236C208.065 45.0373 208.891 43.942 209.635 42.95C210.421 41.958 211.061 41.152 211.557 40.532C212.053 39.8707 212.343 39.54 212.425 39.54C212.508 39.54 212.818 39.602 213.355 39.726C213.893 39.8087 214.471 39.9327 215.091 40.098C215.711 40.222 216.29 40.3873 216.827 40.594C217.365 40.7593 217.695 40.9247 217.819 41.09C217.902 41.214 217.613 41.772 216.951 42.764C216.29 43.7147 215.422 44.8927 214.347 46.298C213.314 47.7033 212.136 49.212 210.813 50.824C209.532 52.3947 208.292 53.8827 207.093 55.288C205.936 56.652 204.882 57.7887 203.931 58.698C202.981 59.6073 202.34 60.0827 202.009 60.124C201.637 60.1653 200.935 60.0827 199.901 59.876C198.909 59.628 197.835 59.2767 196.677 58.822C195.561 58.326 194.507 57.706 193.515 56.962C192.523 56.218 191.862 55.3707 191.531 54.42C191.283 53.6347 191.304 52.374 191.593 50.638C191.883 48.902 192.358 46.98 193.019 44.872C193.639 42.7227 194.363 40.5113 195.189 38.238C196.057 35.9647 196.925 33.8773 197.793 31.976C198.661 30.0747 199.488 28.504 200.273 27.264C201.059 25.9827 201.699 25.28 202.195 25.156ZM209.015 11.02C209.139 10.772 209.367 10.6273 209.697 10.586C210.069 10.5033 210.503 10.4827 210.999 10.524C211.495 10.524 212.033 10.586 212.611 10.71C213.19 10.834 213.789 10.9787 214.409 11.144C215.815 11.5573 217.385 12.0947 219.121 12.756L211.495 21.808C210.751 21.932 210.049 21.9733 209.387 21.932C208.809 21.8907 208.251 21.7667 207.713 21.56C207.176 21.312 206.783 20.878 206.535 20.258C206.163 19.3073 206.081 18.3153 206.287 17.282C206.494 16.2073 206.804 15.1947 207.217 14.244C207.672 13.1693 208.271 12.0947 209.015 11.02ZM228.769 52.684C229.43 52.3947 230.257 51.692 231.249 50.576C232.241 49.4187 233.253 48.158 234.287 46.794C235.361 45.3887 236.395 44.004 237.387 42.64C238.379 41.276 239.185 40.1807 239.805 39.354C239.846 39.3127 240.177 39.354 240.797 39.478C241.458 39.5607 242.14 39.7053 242.843 39.912C243.545 40.0773 244.165 40.284 244.703 40.532C245.281 40.7387 245.55 40.9247 245.509 41.09C245.178 41.6273 244.62 42.4747 243.835 43.632C243.049 44.748 242.14 46.0087 241.107 47.414C240.073 48.8193 238.978 50.266 237.821 51.754C236.663 53.2007 235.527 54.544 234.411 55.784C233.336 56.9827 232.365 57.9953 231.497 58.822C230.629 59.6073 229.967 60 229.513 60C229.43 60 229.12 60 228.583 60C228.087 59.9587 227.446 59.8967 226.661 59.814C225.917 59.69 225.09 59.5453 224.181 59.38C223.313 59.1733 222.465 58.9047 221.639 58.574C220.812 58.1607 220.13 57.706 219.593 57.21C219.055 56.714 218.621 56.218 218.291 55.722C218.001 55.1847 217.774 54.6473 217.609 54.11C217.485 53.5313 217.402 52.9733 217.361 52.436C217.195 51.2787 217.319 49.832 217.733 48.096C218.146 46.36 218.745 44.5413 219.531 42.64C220.357 40.6973 221.329 38.7547 222.445 36.812C223.602 34.8693 224.801 33.1333 226.041 31.604C225.999 31.48 225.937 31.356 225.855 31.232C225.648 31.0253 225.503 31.0253 225.421 31.232C224.677 31.976 223.829 32.968 222.879 34.208C221.928 35.4067 221.039 36.6053 220.213 37.804C219.221 39.168 218.229 40.6147 217.237 42.144L211.657 40.222L219.221 29.124C219.014 28.628 218.849 28.0907 218.725 27.512C218.642 27.016 218.559 26.4373 218.477 25.776C218.435 25.0733 218.518 24.3087 218.725 23.482C219.014 22.2833 219.386 21.2087 219.841 20.258C220.337 19.266 220.833 18.4187 221.329 17.716C221.825 16.972 222.3 16.3727 222.755 15.918C223.251 15.422 223.643 15.0707 223.933 14.864C224.387 14.5747 225.007 14.5953 225.793 14.926C226.619 15.2153 227.467 15.6493 228.335 16.228C229.244 16.7653 230.091 17.344 230.877 17.964C231.662 18.584 232.261 19.08 232.675 19.452C232.964 19.7413 232.84 20.4027 232.303 21.436C231.765 22.428 231.083 23.4613 230.257 24.536C229.306 25.8587 228.19 27.2847 226.909 28.814C228.479 28.7313 229.905 28.6693 231.187 28.628C232.261 28.5867 233.295 28.566 234.287 28.566C235.279 28.566 235.919 28.6073 236.209 28.69C236.374 28.7727 236.581 28.876 236.829 29C237.118 29.0827 237.366 29.2067 237.573 29.372C237.779 29.5373 237.903 29.7233 237.945 29.93C238.027 30.0953 237.986 30.2813 237.821 30.488C236.126 32.472 234.679 34.704 233.481 37.184C232.282 39.6227 231.311 41.958 230.567 44.19C229.823 46.3807 229.306 48.282 229.017 49.894C228.727 51.506 228.645 52.436 228.769 52.684ZM256.378 52.684C257.039 52.3947 257.866 51.692 258.858 50.576C259.85 49.4187 260.863 48.158 261.896 46.794C262.971 45.3887 264.004 44.004 264.996 42.64C265.988 41.276 266.794 40.1807 267.414 39.354C267.455 39.3127 267.786 39.354 268.406 39.478C269.067 39.5607 269.749 39.7053 270.452 39.912C271.155 40.0773 271.775 40.284 272.312 40.532C272.891 40.7387 273.159 40.9247 273.118 41.09C272.787 41.6273 272.229 42.4747 271.444 43.632C270.659 44.748 269.749 46.0087 268.716 47.414C267.683 48.8193 266.587 50.266 265.43 51.754C264.273 53.2007 263.136 54.544 262.02 55.784C260.945 56.9827 259.974 57.9953 259.106 58.822C258.238 59.6073 257.577 60 257.122 60C257.039 60 256.729 60 256.192 60C255.696 59.9587 255.055 59.8967 254.27 59.814C253.526 59.69 252.699 59.5453 251.79 59.38C250.922 59.1733 250.075 58.9047 249.248 58.574C248.421 58.1607 247.739 57.706 247.202 57.21C246.665 56.714 246.231 56.218 245.9 55.722C245.611 55.1847 245.383 54.6473 245.218 54.11C245.094 53.5313 245.011 52.9733 244.97 52.436C244.805 51.2787 244.929 49.832 245.342 48.096C245.755 46.36 246.355 44.5413 247.14 42.64C247.967 40.6973 248.938 38.7547 250.054 36.812C251.211 34.8693 252.41 33.1333 253.65 31.604C253.609 31.48 253.547 31.356 253.464 31.232C253.257 31.0253 253.113 31.0253 253.03 31.232C252.286 31.976 251.439 32.968 250.488 34.208C249.537 35.4067 248.649 36.6053 247.822 37.804C246.83 39.168 245.838 40.6147 244.846 42.144L239.266 40.222L246.83 29.124C246.623 28.628 246.458 28.0907 246.334 27.512C246.251 27.016 246.169 26.4373 246.086 25.776C246.045 25.0733 246.127 24.3087 246.334 23.482C246.623 22.2833 246.995 21.2087 247.45 20.258C247.946 19.266 248.442 18.4187 248.938 17.716C249.434 16.972 249.909 16.3727 250.364 15.918C250.86 15.422 251.253 15.0707 251.542 14.864C251.997 14.5747 252.617 14.5953 253.402 14.926C254.229 15.2153 255.076 15.6493 255.944 16.228C256.853 16.7653 257.701 17.344 258.486 17.964C259.271 18.584 259.871 19.08 260.284 19.452C260.573 19.7413 260.449 20.4027 259.912 21.436C259.375 22.428 258.693 23.4613 257.866 24.536C256.915 25.8587 255.799 27.2847 254.518 28.814C256.089 28.7313 257.515 28.6693 258.796 28.628C259.871 28.5867 260.904 28.566 261.896 28.566C262.888 28.566 263.529 28.6073 263.818 28.69C263.983 28.7727 264.19 28.876 264.438 29C264.727 29.0827 264.975 29.2067 265.182 29.372C265.389 29.5373 265.513 29.7233 265.554 29.93C265.637 30.0953 265.595 30.2813 265.43 30.488C263.735 32.472 262.289 34.704 261.09 37.184C259.891 39.6227 258.92 41.958 258.176 44.19C257.432 46.3807 256.915 48.282 256.626 49.894C256.337 51.506 256.254 52.436 256.378 52.684ZM294.527 25.156C296.718 25.652 298.661 26.1273 300.355 26.582C301.058 26.7887 301.74 26.9953 302.401 27.202C303.104 27.3673 303.703 27.5327 304.199 27.698C304.737 27.822 305.15 27.9667 305.439 28.132C305.729 28.256 305.832 28.3387 305.749 28.38C305.047 29 304.241 30.0747 303.331 31.604C302.422 33.092 301.492 34.7867 300.541 36.688C299.591 38.5893 298.661 40.5733 297.751 42.64C296.883 44.6653 296.098 46.5047 295.395 48.158C294.734 49.8113 294.217 51.1753 293.845 52.25C293.473 53.2833 293.349 53.7587 293.473 53.676C293.68 53.5107 294.093 53.056 294.713 52.312C295.375 51.5267 296.098 50.6173 296.883 49.584C297.71 48.5093 298.578 47.3933 299.487 46.236C300.397 45.0373 301.223 43.942 301.967 42.95C302.711 41.958 303.331 41.152 303.827 40.532C304.365 39.8707 304.675 39.54 304.757 39.54C304.84 39.54 305.15 39.602 305.687 39.726C306.225 39.8087 306.803 39.9327 307.423 40.098C308.043 40.222 308.601 40.3873 309.097 40.594C309.635 40.7593 309.965 40.9247 310.089 41.09C310.172 41.214 309.883 41.772 309.221 42.764C308.56 43.7147 307.692 44.8927 306.617 46.298C305.584 47.7033 304.427 49.212 303.145 50.824C301.864 52.3947 300.624 53.8827 299.425 55.288C298.268 56.652 297.235 57.7887 296.325 58.698C295.416 59.6073 294.796 60.0827 294.465 60.124C294.052 60.1653 293.329 60.0827 292.295 59.876C291.303 59.628 290.229 59.2767 289.071 58.822C287.914 58.326 286.839 57.706 285.847 56.962C284.855 56.218 284.194 55.3707 283.863 54.42C283.698 53.9653 283.636 53.3247 283.677 52.498C283.76 51.63 283.905 50.6587 284.111 49.584C283.037 50.7413 281.879 51.94 280.639 53.18C279.399 54.3787 278.18 55.474 276.981 56.466C275.824 57.458 274.749 58.2847 273.757 58.946C272.765 59.6073 271.98 59.9587 271.401 60C271.029 60.0413 270.471 59.9793 269.727 59.814C269.025 59.6073 268.281 59.2353 267.495 58.698C266.71 58.1193 265.987 57.334 265.325 56.342C264.664 55.35 264.189 54.048 263.899 52.436C263.734 51.6507 263.775 50.452 264.023 48.84C264.23 47.228 264.623 45.4507 265.201 43.508C265.78 41.5653 266.524 39.5607 267.433 37.494C268.343 35.4273 269.376 33.5467 270.533 31.852C271.732 30.116 273.034 28.7107 274.439 27.636C275.886 26.52 277.436 25.9413 279.089 25.9C279.916 25.9 280.805 25.962 281.755 26.086C282.706 26.21 283.636 26.3753 284.545 26.582C285.455 26.7887 286.302 27.0367 287.087 27.326C287.914 27.574 288.596 27.8633 289.133 28.194C289.464 28.4007 289.712 28.814 289.877 29.434C290.084 30.054 290.229 30.7567 290.311 31.542C291.138 29.7647 291.923 28.2973 292.667 27.14C293.453 25.9413 294.073 25.28 294.527 25.156ZM288.823 44.19C288.534 44.6033 287.955 45.306 287.087 46.298C286.261 47.29 285.269 48.3853 284.111 49.584C284.401 48.096 284.814 46.4427 285.351 44.624C285.889 42.8053 286.509 40.966 287.211 39.106C287.335 38.238 287.459 37.3493 287.583 36.44C287.749 35.4893 287.831 34.6213 287.831 33.836C287.873 33.0093 287.811 32.3067 287.645 31.728C287.521 31.1493 287.253 30.7773 286.839 30.612C286.261 30.4053 285.62 30.5913 284.917 31.17C284.215 31.7487 283.491 32.596 282.747 33.712C282.003 34.7867 281.259 36.0473 280.515 37.494C279.771 38.9407 279.069 40.4493 278.407 42.02C277.746 43.5493 277.147 45.0787 276.609 46.608C276.072 48.096 275.617 49.4393 275.245 50.638C274.915 51.7953 274.687 52.7253 274.563 53.428C274.481 54.1307 274.543 54.4613 274.749 54.42C275.08 54.3787 275.576 54.048 276.237 53.428C276.94 52.7667 277.725 52.002 278.593 51.134C279.461 50.2247 280.35 49.2533 281.259 48.22C282.169 47.1453 282.995 46.174 283.739 45.306C284.525 44.3967 285.145 43.6527 285.599 43.074C286.095 42.4953 286.343 42.1853 286.343 42.144C286.343 42.1027 286.509 42.144 286.839 42.268C287.211 42.3507 287.583 42.4953 287.955 42.702C288.327 42.8673 288.617 43.0947 288.823 43.384C289.071 43.632 289.071 43.9007 288.823 44.19Z" fill="url(#paint0_linear)"/>
<defs>
<linearGradient id="paint0_linear" x1="165" y1="13" x2="165" y2="81" gradientUnits="userSpaceOnUse">
<stop/>
<stop offset="0.378125" stop-opacity="0.886563"/>
<stop offset="1" stop-opacity="0.7"/>
</linearGradient>
</defs>
</svg>
